<svg xmlns="http://www.w3.org/2000/svg" viewBox="0 0 54.06 74.62"><defs><style>.cls-1{fill:none;stroke:#15983f;stroke-linejoin:round;stroke-width:2.65px;}</style></defs><g id="レイヤー_2" data-name="レイヤー 2"><g id="レイヤー_1-2" data-name="レイヤー 1"><polyline class="cls-1" points="30.84 19.57 30.84 1.33 1.33 14.26 1.66 72.96 18.57 72.96"/><rect class="cls-1" x="24.21" y="24.54" width="28.52" height="48.75"/><line class="cls-1" x1="29.52" y1="31.18" x2="36.15" y2="31.18"/><line class="cls-1" x1="7.3" y1="20.89" x2="13.93" y2="20.89"/><line class="cls-1" x1="7.3" y1="31.01" x2="13.93" y2="31.01"/><line class="cls-1" x1="7.3" y1="41.12" x2="13.93" y2="41.12"/><line class="cls-1" x1="7.3" y1="51.24" x2="13.93" y2="51.24"/><line class="cls-1" x1="7.3" y1="61.36" x2="13.93" y2="61.36"/><line class="cls-1" x1="40.46" y1="31.18" x2="47.09" y2="31.18"/><line class="cls-1" x1="29.52" y1="41.24" x2="36.15" y2="41.24"/><line class="cls-1" x1="40.46" y1="41.24" x2="47.09" y2="41.24"/><line class="cls-1" x1="29.52" y1="51.3" x2="36.15" y2="51.3"/><line class="cls-1" x1="40.46" y1="51.3" x2="47.09" y2="51.3"/><line class="cls-1" x1="29.52" y1="61.36" x2="36.15" y2="61.36"/><line class="cls-1" x1="40.46" y1="61.36" x2="47.09" y2="61.36"/></g></g></svg>