<svg xmlns="http://www.w3.org/2000/svg" viewBox="0 0 200 200"><defs><style>.cls-1{opacity:0;}.cls-2{fill:#e7f7eb;}.cls-3{fill:#15983f;}</style></defs><g id="レイヤー_2" data-name="レイヤー 2"><g id="レイヤー_1-2" data-name="レイヤー 1"><g class="cls-1"><rect class="cls-2" width="200" height="200"/></g><path class="cls-3" d="M131.32,89.66a2.72,2.72,0,0,1-1.5-.45l-14.16-9.44-14.15,9.44a2.74,2.74,0,0,1-2.79.13A2.71,2.71,0,0,1,97.29,87V75.85a2.71,2.71,0,0,1,5.42,0v6l11.45-7.63a2.7,2.7,0,0,1,3,0l11.44,7.63V42.68h-25.9V62.37a2.71,2.71,0,1,1-5.42,0V40A2.71,2.71,0,0,1,100,37.25h31.32A2.71,2.71,0,0,1,134,40V87a2.71,2.71,0,0,1-2.72,2.71Z"/><path class="cls-3" d="M141.46,162.75H58.54a8.1,8.1,0,0,1-8.24-7.93V55.62a8.1,8.1,0,0,1,8.24-7.93H100a2.72,2.72,0,1,1,0,5.43H58.54a2.67,2.67,0,0,0-2.81,2.5v99.2a2.67,2.67,0,0,0,2.81,2.5h82.92a2.67,2.67,0,0,0,2.81-2.5V55.62a2.67,2.67,0,0,0-2.81-2.5h-8.29a2.72,2.72,0,1,1,0-5.43h8.29a8.1,8.1,0,0,1,8.24,7.93v99.2A8.1,8.1,0,0,1,141.46,162.75Z"/><path class="cls-3" d="M131.32,107.94H68.68a2.72,2.72,0,1,1,0-5.43h62.64a2.72,2.72,0,1,1,0,5.43Z"/><path class="cls-3" d="M131.32,134H68.68a2.72,2.72,0,1,1,0-5.43h62.64a2.72,2.72,0,1,1,0,5.43Z"/><path class="cls-3" d="M87,81.83H68.68a2.72,2.72,0,1,1,0-5.43H87a2.72,2.72,0,0,1,0,5.43Z"/></g></g></svg>