<svg xmlns="http://www.w3.org/2000/svg" viewBox="0 0 65.16 54.72"><defs><style>.cls-1{fill:#15983f;stroke:#15983f;stroke-miterlimit:10;}</style></defs><g id="レイヤー_2" data-name="レイヤー 2"><g id="レイヤー_1-2" data-name="レイヤー 1"><path class="cls-1" d="M42.47,40.63a6.15,6.15,0,1,1,6.14-6.15A6.16,6.16,0,0,1,42.47,40.63Zm0-10.39a4.24,4.24,0,1,0,4.23,4.24A4.25,4.25,0,0,0,42.47,30.24Z"/><path class="cls-1" d="M45.26,54.22H31.36a3.25,3.25,0,1,1,0-6.49h10.7l.62-3.13a1,1,0,1,1,1.87.37l-.77,3.9a1,1,0,0,1-.94.77H31.36a1.34,1.34,0,1,0,0,2.67h13.9a1.83,1.83,0,0,0,1.8-1.56l1.11-7.58a5.49,5.49,0,0,0-2-5.06l1.2-1.48a7.42,7.42,0,0,1,2.68,6.82L49,51A3.75,3.75,0,0,1,45.26,54.22Z"/><path class="cls-1" d="M33.61,54.22H17a1,1,0,0,1-.91-.66l-4-12.21a.94.94,0,0,1,.13-.86A1,1,0,0,1,13,40.1H24a1,1,0,0,1,.92.67l3.6,11.54h5.11a1,1,0,0,1,0,1.91Zm-16-1.91H26.5L23.28,42h-9Z"/><path class="cls-1" d="M34.83,46.28l-.2,0a1,1,0,0,1-.73-1.14l.63-2.91a6,6,0,0,1,3.85-4.36l.55-.19a1,1,0,1,1,.63,1.8l-.55.19a4.08,4.08,0,0,0-2.62,3l-.63,2.91A.94.94,0,0,1,34.83,46.28Z"/><path class="cls-1" d="M5.48,54.22a.94.94,0,0,1-1-.95V18.73a1,1,0,1,1,1.91,0V53.27A1,1,0,0,1,5.48,54.22Z"/><path class="cls-1" d="M59,54.22a1,1,0,0,1-1-.95V22A1,1,0,1,1,60,22V53.27A.94.94,0,0,1,59,54.22Z"/><path class="cls-1" d="M1.45,22.63a.92.92,0,0,1-.67-.28A1,1,0,0,1,.78,21L21.14.83l.09-.09A1,1,0,0,1,21.87.5H42.25a.92.92,0,0,1,.65.26L64.36,21A1,1,0,0,1,64.59,22a.94.94,0,0,1-.89.6H41.65a1,1,0,0,1-.68-.28L21.8,2.86,2.13,22.36A1,1,0,0,1,1.45,22.63Zm40.6-1.91H61.3L41.87,2.41H24Z"/></g></g></svg>