<svg xmlns="http://www.w3.org/2000/svg" viewBox="0 0 200 200"><defs><style>.cls-1{fill:#e7f7eb;opacity:0;}.cls-2{fill:#15983f;}</style></defs><g id="レイヤー_2" data-name="レイヤー 2"><g id="レイヤー_1-2" data-name="レイヤー 1"><rect class="cls-1" width="200" height="200"/><path class="cls-2" d="M100,168.25a58.58,58.58,0,1,1,58.58-58.58A58.65,58.65,0,0,1,100,168.25Zm0-111.72a53.15,53.15,0,1,0,53.15,53.14A53.2,53.2,0,0,0,100,56.53Z"/><path class="cls-2" d="M100,55.1a11.68,11.68,0,1,1,11.67-11.68A11.69,11.69,0,0,1,100,55.1Zm0-17.92a6.25,6.25,0,1,0,6.25,6.24A6.25,6.25,0,0,0,100,37.18Z"/><path class="cls-2" d="M100,74.89a2.71,2.71,0,0,1-2.71-2.72V63.5a2.71,2.71,0,1,1,5.42,0v8.67A2.71,2.71,0,0,1,100,74.89Z"/><path class="cls-2" d="M62.5,112.39H53.83a2.72,2.72,0,1,1,0-5.43H62.5a2.72,2.72,0,1,1,0,5.43Z"/><path class="cls-2" d="M100,158.56a2.71,2.71,0,0,1-2.71-2.72v-8.67a2.71,2.71,0,0,1,5.42,0v8.67A2.71,2.71,0,0,1,100,158.56Z"/><path class="cls-2" d="M146.17,112.39H137.5a2.72,2.72,0,1,1,0-5.43h8.67a2.72,2.72,0,1,1,0,5.43Z"/><path class="cls-2" d="M79.24,151.06a2.65,2.65,0,0,1-1.28-.33,2.72,2.72,0,0,1-1.39-2.88l6.28-34A39,39,0,0,1,94,93.09l24.86-24a2.72,2.72,0,0,1,4.56,2.44l-6.28,34A38.94,38.94,0,0,1,106,126.26l-24.86,24A2.73,2.73,0,0,1,79.24,151.06Zm37.31-72.21L97.78,97h0a33.94,33.94,0,0,0-9.59,17.88L83.45,140.5l18.77-18.14a34,34,0,0,0,9.59-17.88ZM95.89,95h0Z"/><path class="cls-2" d="M110.93,118.22a2.75,2.75,0,0,1-1.27-.32L87.79,106.24a2.71,2.71,0,1,1,2.55-4.79l21.87,11.66a2.71,2.71,0,0,1-1.28,5.11Z"/></g></g></svg>